<svg width="70" height="70" viewBox="0 0 70 70" fill="none" xmlns="http://www.w3.org/2000/svg">
<g clip-path="url(#clip0_425_1246)">
<path d="M55.2343 37.625C51.7343 28.3281 42.2187 20.6719 45.4999 9.29688C32.703 10.3906 19.9062 11.5938 7.1093 12.6875C0.984299 33.9062 27.453 45.6094 21.2187 66.8281C32.8124 60.8125 44.8437 55.4531 56.3281 49.5469C57.5312 45.3906 56.5468 41.125 55.2343 37.625Z" fill="#93A2AA"/>
<path d="M7.21875 41.3438C10.6094 39.375 14.1094 37.4062 17.5 35.3281C19.7969 37.4062 21.875 39.7031 23.0781 42.4375C19.4688 44.1875 15.8594 46.0469 12.3594 47.7969C12.4688 46.1563 12.4688 44.625 12.3594 43.2031C10.7188 42.5469 8.96875 41.8906 7.21875 41.3438Z" fill="#933434"/>
<path d="M64.5311 36.5312C60.4843 25.8125 49.5468 17.0625 53.3749 3.9375C38.7186 5.25 23.953 6.5625 9.29677 7.875C2.18739 32.1562 32.4843 45.6094 25.3749 70C38.6093 63.1094 52.4999 56.9844 65.7343 50.0938C67.1561 45.2812 66.0624 40.4688 64.5311 36.5312Z" fill="#B0BDC6"/>
<path d="M0 25.1563C4.48438 23.8438 9.07812 22.4219 13.5625 21.1094C15.75 24.1719 17.5 27.4531 18.2656 31.0625C13.5625 32.1562 8.96875 33.1406 4.26562 34.2344C4.92188 32.375 5.25 30.625 5.46875 28.7656C3.71875 27.4531 1.96875 26.3594 0 25.1563" fill="#ED4C5C"/>
<path d="M11.2657 5.46875C5.25011 28.875 36.2032 40.25 30.0782 63.6562C43.0939 56.6562 56.547 50.2031 69.5626 43.2031C70.7657 38.6094 69.4532 34.0156 67.8126 30.4062C63.2189 20.3438 51.9532 12.4688 55.2345 0C40.5782 1.85938 25.922 3.71875 11.2657 5.46875Z" fill="#D9E3E8"/>
<path d="M16.1875 13.5625C16.2969 14.4375 16.5156 15.3125 16.625 16.0781L49.7656 9.51562C49.6562 8.85937 49.4375 8.20312 49.3281 7.54688C38.2812 9.625 27.2344 11.5937 16.1875 13.5625ZM19.25 22.8594C30.0781 20.2344 40.9063 17.6094 51.8438 14.9844C51.5156 14.3281 51.1875 13.7812 50.9688 13.125C40.0312 15.6406 29.0938 18.0469 18.1563 20.5625C18.4844 21.3281 18.9219 22.0938 19.25 22.8594ZM23.1875 29.0938C33.7969 26.0312 44.2969 22.9688 54.9062 19.9063C54.4688 19.3594 54.1406 18.7031 53.7031 18.1563C42.9844 21.1094 32.375 23.9531 21.6562 26.9062C22.2031 27.6719 22.6406 28.4375 23.1875 29.0938ZM35 49.9844C35.2188 50.8594 35.3281 51.625 35.4375 52.5C40.25 50.2031 45.1719 47.7969 49.9844 45.5C49.875 44.7344 49.7656 43.9688 49.5469 43.2031C44.7344 45.3906 39.9219 47.6875 35 49.9844Z" fill="#7D8B91"/>
</g>
<defs>
<clipPath id="clip0_425_1246">
<rect width="70" height="70" fill="white"/>
</clipPath>
</defs>
</svg>
